<svg width="108" height="47" viewBox="0 0 108 47" fill="none" xmlns="http://www.w3.org/2000/svg">
<g clip-path="url(#clip0_2_3)">
<g clip-path="url(#clip1_2_3)">
<path d="M5.85938 11.1328L4.07812 10.0547C2.96094 9.375 2.16406 8.70703 1.6875 8.05078C1.21875 7.38672 0.984375 6.625 0.984375 5.76562C0.984375 4.47656 1.42969 3.42969 2.32031 2.625C3.21875 1.82031 4.38281 1.41797 5.8125 1.41797C7.17969 1.41797 8.43359 1.80078 9.57422 2.56641V5.22656C8.39453 4.09375 7.125 3.52734 5.76562 3.52734C5 3.52734 4.37109 3.70703 3.87891 4.06641C3.38672 4.41797 3.14062 4.87109 3.14062 5.42578C3.14062 5.91797 3.32031 6.37891 3.67969 6.80859C4.03906 7.23828 4.62109 7.6875 5.42578 8.15625L7.21875 9.21094C9.21875 10.3984 10.2188 11.9141 10.2188 13.7578C10.2188 15.0703 9.77734 16.1367 8.89453 16.957C8.01953 17.7773 6.87891 18.1875 5.47266 18.1875C3.85547 18.1875 2.38281 17.6914 1.05469 16.6992V13.7227C2.32031 15.3242 3.78516 16.125 5.44922 16.125C6.18359 16.125 6.79297 15.9219 7.27734 15.5156C7.76953 15.1016 8.01562 14.5859 8.01562 13.9688C8.01562 12.9688 7.29688 12.0234 5.85938 11.1328ZM24.3398 1.62891H26.6836V18H24.3398V10.875H15.1406V18H12.7969V1.62891H15.1406V8.70703H24.3398V1.62891ZM38.3438 1.39453C40.875 1.39453 42.9805 2.19531 44.6602 3.79688C46.3477 5.39844 47.1914 7.40625 47.1914 9.82031C47.1914 12.2344 46.3398 14.2344 44.6367 15.8203C42.9414 17.3984 40.8008 18.1875 38.2148 18.1875C35.7461 18.1875 33.6875 17.3984 32.0391 15.8203C30.3984 14.2344 29.5781 12.25 29.5781 9.86719C29.5781 7.42188 30.4062 5.39844 32.0625 3.79688C33.7188 2.19531 35.8125 1.39453 38.3438 1.39453ZM38.4375 3.62109C36.5625 3.62109 35.0195 4.20703 33.8086 5.37891C32.6055 6.55078 32.0039 8.04688 32.0039 9.86719C32.0039 11.6328 32.6094 13.1016 33.8203 14.2734C35.0312 15.4453 36.5469 16.0312 38.3672 16.0312C40.1953 16.0312 41.7188 15.4336 42.9375 14.2383C44.1641 13.043 44.7773 11.5547 44.7773 9.77344C44.7773 8.03906 44.1641 6.58203 42.9375 5.40234C41.7188 4.21484 40.2188 3.62109 38.4375 3.62109ZM49.9336 18V1.60547H55.125C56.6875 1.60547 57.9336 2.02734 58.8633 2.87109C59.793 3.71484 60.2578 4.84766 60.2578 6.26953C60.2578 7.22266 60.0195 8.06641 59.543 8.80078C59.0664 9.53516 58.4141 10.0703 57.5859 10.4062C56.7578 10.7344 55.5703 10.8984 54.0234 10.8984H52.2891V18H49.9336ZM54.7148 3.69141H52.2891V8.8125H54.8555C55.8086 8.8125 56.543 8.58984 57.0586 8.14453C57.5742 7.69141 57.832 7.04688 57.832 6.21094C57.832 4.53125 56.793 3.69141 54.7148 3.69141ZM16.875 41.3945C16.875 42.793 16.3945 43.9102 15.4336 44.7461C14.4805 45.582 13.1445 46 11.4258 46H2.03906V29.7578H9.89062C10.9062 29.7578 11.7891 29.8555 12.5391 30.0508C13.2969 30.2461 13.9062 30.5156 14.3672 30.8594C14.8281 31.1953 15.1719 31.5938 15.3984 32.0547C15.625 32.5156 15.7383 33.0195 15.7383 33.5664C15.7383 34.1602 15.6211 34.7109 15.3867 35.2188C15.1523 35.7188 14.8594 36.1328 14.5078 36.4609C14.1641 36.7812 13.8164 37.0078 13.4648 37.1406C14.5742 37.5781 15.418 38.1328 15.9961 38.8047C16.582 39.4688 16.875 40.332 16.875 41.3945ZM11.1562 34.4336C11.1562 33.6523 10.8984 33.1328 10.3828 32.875C9.86719 32.6172 9.0625 32.4883 7.96875 32.4883H6.9375V36.3789H7.99219C9.10938 36.3789 9.91406 36.25 10.4062 35.9922C10.9062 35.7344 11.1562 35.2148 11.1562 34.4336ZM11.9531 41.1953C11.9531 39.8047 10.9453 39.1094 8.92969 39.1094H6.9375V43.2695H8.92969C10.9453 43.2695 11.9531 42.5781 11.9531 41.1953ZM37.1484 46H32.1328L30.8086 42.707H23.7539L22.4062 46H17.3906L24.5742 29.7578H29.9883L37.1484 46ZM29.6836 39.8828L27.3047 33.9531L24.9023 39.8828H29.6836ZM56.3906 46H50.4141L44.2031 38.3945V46H39.3047V29.7578H44.2031V37.0234L50.0859 29.7578H55.4062L49.3594 37.3633L56.3906 46ZM70.7695 46H58.5234V29.7578H70.5703V33.0156H63.4219V35.9922H70.2422V39.2617H63.4219V42.7305H70.7695V46ZM89.7891 46H84.5273L83.25 43.1172C82.7812 42.0625 82.3594 41.293 81.9844 40.8086C81.6094 40.3164 81.2422 40.0039 80.8828 39.8711C80.5312 39.7305 80.0742 39.6602 79.5117 39.6602H78.9609V46H74.0625V29.7578H82.3945C83.7383 29.7578 84.8398 30.0312 85.6992 30.5781C86.5586 31.125 87.1758 31.7891 87.5508 32.5703C87.9336 33.3516 88.125 34.0938 88.125 34.7969C88.125 35.6172 87.9648 36.3125 87.6445 36.8828C87.332 37.4453 87 37.8555 86.6484 38.1133C86.2969 38.3711 85.9023 38.6172 85.4648 38.8516C85.9883 39.1562 86.418 39.5195 86.7539 39.9414C87.0977 40.3555 87.5625 41.1992 88.1484 42.4727L89.7891 46ZM83.1328 34.8906C83.1328 34.1406 82.8867 33.6172 82.3945 33.3203C81.9023 33.0234 81.1016 32.875 79.9922 32.875H78.9609V36.7891H80.0156C81.2109 36.7891 82.0273 36.6602 82.4648 36.4023C82.9102 36.1367 83.1328 35.6328 83.1328 34.8906ZM107.156 29.7578L100.793 38.5586V46H95.8945V38.6523L89.4141 29.7578H94.5L98.2266 34.8672L101.965 29.7578H107.156Z" fill="#FAF4EA"/>
</g>
</g>
<defs>
<clipPath id="clip0_2_3">
<rect width="108" height="46" fill="white" transform="translate(0 0.5)"/>
</clipPath>
<clipPath id="clip1_2_3">
<rect width="108" height="46" fill="white" transform="translate(0 0.5)"/>
</clipPath>
</defs>
</svg>
